<?xml version="1.0" standalone="no"?>
<!DOCTYPE svg PUBLIC "-//W3C//DTD SVG 20010904//EN"
 "http://www.w3.org/TR/2001/REC-SVG-20010904/DTD/svg10.dtd">
<svg version="1.0" xmlns="http://www.w3.org/2000/svg"
 width="512.000000pt" height="512.000000pt" viewBox="0 0 512.000000 512.000000"
 preserveAspectRatio="xMidYMid meet">
<metadata>
Created by potrace 1.14, written by Peter Selinger 2001-2017
</metadata>
<g transform="translate(0.000000,512.000000) scale(0.100000,-0.100000)"
fill="#000000" stroke="none">
<path d="M1205 5103 c-59 -30 -103 -85 -110 -137 -2 -12 -6 -41 -9 -66 -4 -24
-8 -45 -9 -46 -1 -1 -94 -4 -207 -6 l-205 -3 -42 -30 c-25 -17 -52 -49 -64
-73 l-21 -43 0 -2274 0 -2274 21 -44 c13 -27 39 -56 63 -73 l41 -29 1636 0
1636 0 38 23 c20 13 49 44 64 69 l27 46 2 481 c1 265 5 492 8 506 4 14 9 39
11 55 2 17 7 48 10 70 4 22 8 51 10 65 2 14 16 102 30 195 15 94 28 186 31
205 3 19 7 46 9 60 9 47 16 98 50 325 4 22 11 69 17 105 5 36 11 79 13 95 2
17 6 44 9 60 5 30 20 127 31 200 3 22 10 65 15 95 5 30 12 73 15 95 3 22 12
83 20 135 8 52 17 113 20 135 3 22 10 65 15 95 5 30 11 73 15 95 3 22 7 51 10
65 2 14 7 43 10 65 6 48 9 63 34 225 11 69 23 145 26 170 3 25 10 70 15 100 5
30 12 71 15 90 8 56 34 231 40 275 4 22 8 51 11 65 14 80 19 132 19 192 0 59
-3 70 -31 105 -37 46 -102 80 -169 87 -27 3 -61 8 -75 10 -14 2 -47 8 -75 12
-27 4 -57 8 -65 10 -8 1 -33 5 -55 9 -35 5 -44 12 -70 57 -22 38 -42 58 -75
74 -44 23 -50 23 -465 24 -231 0 -447 5 -480 10 -33 5 -78 12 -100 15 -23 3
-52 7 -65 10 -14 3 -45 7 -70 10 -25 3 -70 10 -100 15 -30 5 -73 12 -95 15
-22 3 -55 8 -73 11 -17 3 -49 7 -70 9 -20 3 -48 7 -62 10 -30 6 -53 9 -190 29
-58 9 -132 20 -165 26 -33 5 -80 13 -105 16 -45 5 -53 7 -120 18 -19 3 -51 8
-70 10 -35 5 -272 41 -340 52 -85 13 -155 12 -185 -3z"/>
</g>
</svg>
