<?xml version="1.0" encoding="utf-8"?>
<!-- Generator: Adobe Illustrator 27.1.1, SVG Export Plug-In . SVG Version: 6.00 Build 0)  -->
<svg version="1.1" id="Laag_1" xmlns="http://www.w3.org/2000/svg" xmlns:xlink="http://www.w3.org/1999/xlink" x="0px" y="0px"
	 viewBox="0 0 326 198.4" style="enable-background:new 0 0 326 198.4;" xml:space="preserve">
<style type="text/css">
	.st0{fill:#DBD9ED;}
	.st1{fill:url(#SVGID_1_);}
	.st2{fill:#009DE0;}
	.st3{fill:#322B80;}
</style>
<path class="st0" d="M219.1,80c-2.6,0-5,0.9-6.9,2.4l-18.2-18.3c0.8-1.3,1.3-2.9,1.3-4.6c0-4.7-3.8-8.5-8.5-8.5
	c-1.7,0-3.2,0.5-4.5,1.3l-17.9-17.9c1.4-1.9,2.2-4.2,2.2-6.7c0-6.2-5.1-11.3-11.3-11.3c-6.2,0-11.3,5.1-11.3,11.3
	c0,1.8,0.4,3.5,1.2,5l-36.1,25.5L73.2,31.2c0.5-1,0.7-2.2,0.7-3.4c0-4.7-3.8-8.5-8.5-8.5S57,23.1,57,27.8s3.8,8.5,8.5,8.5
	c2.3,0,4.3-0.9,5.8-2.3l37.8,28.4l38-26.8c1.7,1.8,4,3,6.5,3.4v41.6c-5.4,0.8-9.6,5.5-9.6,11.2c0,6.2,5.1,11.3,11.3,11.3
	c5.7,0,10.4-4.2,11.2-9.7H208c0.9,5.3,5.6,9.3,11.1,9.3c6.2,0,11.3-5.1,11.3-11.3C230.4,85.1,225.3,80,219.1,80z M166.4,90
	c-0.8-4.8-4.6-8.6-9.4-9.4V39c1.8-0.3,3.5-1,5-2.1l17.8,17.9c-0.9,1.4-1.5,3-1.5,4.8c0,4.7,3.8,8.5,8.5,8.5c1.8,0,3.4-0.6,4.8-1.5
	l18.3,18.3c-1,1.5-1.7,3.2-2,5.1H166.4z"/>
<path class="st0" d="M110,167.1c-2.1,0-4.1,0.8-5.5,2.1l-36.7-26.8l-2,2.7l36.6,26.8c-0.6,1.1-0.9,2.4-0.9,3.7
	c0,4.7,3.8,8.5,8.5,8.5s8.5-3.8,8.5-8.5C118.5,170.9,114.7,167.1,110,167.1z"/>
<linearGradient id="SVGID_1_" gradientUnits="userSpaceOnUse" x1="17.7702" y1="104.9484" x2="120.3312" y2="104.9484">
	<stop  offset="0" style="stop-color:#009DE0"/>
	<stop  offset="8.121336e-02" style="stop-color:#0092D6"/>
	<stop  offset="0.2764" style="stop-color:#0076BD"/>
	<stop  offset="0.4617" style="stop-color:#205CA5"/>
	<stop  offset="0.6317" style="stop-color:#2B4793"/>
	<stop  offset="0.7835" style="stop-color:#2F3788"/>
	<stop  offset="0.9114" style="stop-color:#312F82"/>
	<stop  offset="1" style="stop-color:#322B80"/>
</linearGradient>
<path class="st1" d="M29,155.1c-1.5,0-3.1-0.3-4.6-1c-5.7-2.6-8.2-9.2-5.6-14.9l35.2-77.8c1.7-3.8,5.5-6.4,9.7-6.6
	c4.2-0.2,8.2,2,10.3,5.6l23.9,41.4V91.1c0-6.2,5-11.2,11.2-11.2s11.2,5,11.2,11.2v52.8c0,5.1-3.4,9.6-8.3,10.9
	c-4.9,1.3-10.1-0.8-12.7-5.2L65.4,90.7l-26.1,57.8C37.4,152.6,33.3,155.1,29,155.1z"/>
<circle class="st2" cx="108.8" cy="59.7" r="11.3"/>
<circle class="st2" cx="67" cy="143.8" r="11.3"/>
<g>
	<path class="st3" d="M176,141.2v12.5h-6.5v-12.3c0-3.6-1.9-5.1-4.1-5.1c-2.7,0-4.5,1.9-4.5,6.2v11.3h-6.4v-12.2
		c0-3.6-1.9-5.2-4-5.2c-2.3,0-4.7,1.3-4.7,5.4v12h-6.4v-22.9h6.4v3.7c0.9-2.8,4-4.3,6.5-4.3c3.4,0,6,1.6,7.3,4.5
		c1.7-3.3,5.2-4.5,7.6-4.5C173,130.3,176,134.4,176,141.2z"/>
	<path class="st3" d="M198,130.9h6.4v22.9H198v-3.3c-1.5,2.3-4.5,3.9-7.5,3.9c-6.3,0-11-4.9-11-12c0-7.1,4.6-12,11.2-12
		c2.9,0,5.9,1.3,7.4,3.6V130.9z M197.8,142.4c0-3.5-2.8-6.1-6-6.1c-3.3,0-5.8,2.7-5.8,6.1c0,3.2,2.5,6,5.9,6
		C195.1,148.4,197.8,145.6,197.8,142.4z"/>
	<path class="st3" d="M221.6,153.8c-6.5,0-9.3-2.8-9.3-9.5v-8.4h-4.1v-5h4.1v-5.6l6.4,0v5.6h4.8v5h-4.8v8c0,2.6,1.1,3.9,3.6,3.9h1.5
		v6H221.6z"/>
	<path class="st3" d="M240,153.8c-6.5,0-9.3-2.8-9.3-9.5v-8.4h-4.1v-5h4.1v-5.6l6.4,0v5.6h4.8v5h-4.8v8c0,2.6,1.1,3.9,3.6,3.9h1.5v6
		H240z"/>
	<path class="st3" d="M269,144.4h-17.2c0.7,2.7,2.8,4.3,5.9,4.3c2.3,0,4.6-1.1,6-2.7l3.7,3.8c-2.2,2.9-6.1,4.6-10.1,4.6
		c-7,0-12.2-4.9-12.2-12c0-7.4,5.6-12,12.1-12c6.6,0,11.9,4.7,11.9,11.6C269.2,142.6,269.1,143.4,269,144.4z M262.7,140.3
		c-0.2-2.7-2.4-4.4-5.3-4.4c-2.6,0-4.9,1.3-5.6,4.4H262.7z"/>
	<path class="st3" d="M290.3,131.1l-1.5,6.1c-1.4-0.7-2.5-0.8-3.3-0.8c-3.3,0-5.5,3.1-5.5,9.6v7.8h-6.4v-22.9h6.4v4.9
		c1.3-3.8,3.9-5.5,6.7-5.5C287.9,130.3,289.3,130.5,290.3,131.1z"/>
	<path class="st3" d="M291.6,146.6h6c0,1.3,1.1,2.7,3.4,2.7c1.9,0,3.3-0.9,3.3-2.3c0-1-0.8-1.5-2.5-1.9l-3-0.7
		c-5.9-1.6-6.7-4.8-6.7-7.2c0-3.5,3.7-6.9,9-6.9c4.2,0,9.1,2,9,7.4H304c0-1.6-1.3-2.4-2.8-2.4c-1.5,0-2.6,0.8-2.6,2
		c0,1.1,1,1.6,2.3,2l3.8,1c5.5,1.5,6.2,4.9,6.2,6.8c0,4.8-4.9,7.3-9.6,7.3C296.3,154.4,291.7,151.6,291.6,146.6z"/>
</g>
</svg>
